<svg width="15" height="10" viewBox="0 0 15 10" fill="none" xmlns="http://www.w3.org/2000/svg">
<path d="M10.2188 1.125C10.4062 0.9375 10.5833 0.9375 10.75 1.125L14.375 4.75C14.5625 4.91667 14.5625 5.08333 14.375 5.25L10.75 8.875C10.5833 9.0625 10.4062 9.0625 10.2188 8.875L10 8.65625C9.8125 8.48958 9.8125 8.3125 10 8.125L12.625 5.53125H0.875C0.625 5.53125 0.5 5.40625 0.5 5.15625V4.84375C0.5 4.59375 0.625 4.46875 0.875 4.46875H12.625L10 1.875C9.8125 1.6875 9.8125 1.51042 10 1.34375L10.2188 1.125Z" fill="white"/>
</svg>
