<svg width="15" height="10" viewBox="0 0 15 10" fill="none" xmlns="http://www.w3.org/2000/svg">
<path d="M5.28125 1.125C5.09375 0.9375 4.91667 0.9375 4.75 1.125L1.125 4.75C0.9375 4.91667 0.9375 5.08333 1.125 5.25L4.75 8.875C4.91667 9.0625 5.09375 9.0625 5.28125 8.875L5.5 8.65625C5.6875 8.48958 5.6875 8.3125 5.5 8.125L2.875 5.53125H14.625C14.875 5.53125 15 5.40625 15 5.15625V4.84375C15 4.59375 14.875 4.46875 14.625 4.46875H2.875L5.5 1.875C5.6875 1.6875 5.6875 1.51042 5.5 1.34375L5.28125 1.125Z" fill="black"/>
</svg>
