<svg width="9" height="15" viewBox="0 0 9 15" fill="none" xmlns="http://www.w3.org/2000/svg">
<path d="M7.90625 9.71875C8.09375 9.90625 8.09375 10.0833 7.90625 10.25L4.28125 13.875C4.11458 14.0625 3.94792 14.0625 3.78125 13.875L0.15625 10.25C-0.03125 10.0833 -0.03125 9.90625 0.15625 9.71875L0.375 9.5C0.541667 9.3125 0.71875 9.3125 0.90625 9.5L3.5 12.125V0.375C3.5 0.125 3.625 0 3.875 0H4.1875C4.4375 0 4.5625 0.125 4.5625 0.375V12.125L7.15625 9.5C7.34375 9.3125 7.52083 9.3125 7.6875 9.5L7.90625 9.71875Z" fill="black"/>
</svg>
