<svg width="16" height="17" viewBox="0 0 16 17" fill="none" xmlns="http://www.w3.org/2000/svg">
<path d="M8 0.75C6.60417 0.75 5.3125 1.10417 4.125 1.8125C2.9375 2.5 1.98958 3.4375 1.28125 4.625C0.59375 5.8125 0.25 7.10417 0.25 8.5C0.25 9.89583 0.59375 11.1875 1.28125 12.375C1.98958 13.5625 2.9375 14.5 4.125 15.1875C5.3125 15.8958 6.60417 16.25 8 16.25C9.39583 16.25 10.6875 15.8958 11.875 15.1875C13.0625 14.5 14 13.5625 14.6875 12.375C15.3958 11.1875 15.75 9.89583 15.75 8.5C15.75 7.10417 15.3958 5.8125 14.6875 4.625C14 3.4375 13.0625 2.5 11.875 1.8125C10.6875 1.10417 9.39583 0.75 8 0.75ZM13.125 4.3125C13.6042 4.89583 13.9688 5.54167 14.2188 6.25C14.4688 6.9375 14.6042 7.66667 14.625 8.4375C14.1667 8.35417 13.6458 8.28125 13.0625 8.21875C11.9583 8.11458 10.9375 8.125 10 8.25C9.8125 7.79167 9.625 7.35417 9.4375 6.9375C10.4583 6.52083 11.3646 5.97917 12.1562 5.3125C12.5729 4.95833 12.8958 4.625 13.125 4.3125ZM12.375 3.5625C12.1875 3.85417 11.8958 4.16667 11.5 4.5C10.7708 5.10417 9.90625 5.58333 8.90625 5.9375C8.15625 4.54167 7.33333 3.25 6.4375 2.0625C7.5 1.8125 8.55208 1.82292 9.59375 2.09375C10.6354 2.34375 11.5625 2.83333 12.375 3.5625ZM5.1875 2.53125C6.0625 3.71875 6.875 4.98958 7.625 6.34375C6.33333 6.69792 4.96875 6.9375 3.53125 7.0625C2.76042 7.125 2.09375 7.15625 1.53125 7.15625C1.73958 6.13542 2.16667 5.21875 2.8125 4.40625C3.45833 3.59375 4.25 2.96875 5.1875 2.53125ZM1.375 8.5C1.375 8.4375 1.375 8.375 1.375 8.3125C2.02083 8.3125 2.78125 8.28125 3.65625 8.21875C5.28125 8.07292 6.79167 7.79167 8.1875 7.375C8.39583 7.75 8.57292 8.125 8.71875 8.5C7.57292 8.8125 6.46875 9.40625 5.40625 10.2812C4.42708 11.0729 3.65625 11.9583 3.09375 12.9375C2.55208 12.3333 2.125 11.6562 1.8125 10.9062C1.52083 10.1354 1.375 9.33333 1.375 8.5ZM3.9375 13.7188C4.3125 12.9479 4.9375 12.1979 5.8125 11.4688C6.79167 10.6354 7.91667 10.0104 9.1875 9.59375C9.85417 11.3229 10.3229 12.9896 10.5938 14.5938C9.51042 15.0521 8.36458 15.2083 7.15625 15.0625C5.96875 14.9375 4.89583 14.4896 3.9375 13.7188ZM11.6875 14C11.4375 12.5208 11.0104 10.9479 10.4062 9.28125C11.2812 9.13542 12.1979 9.13542 13.1562 9.28125C13.6979 9.34375 14.1562 9.4375 14.5312 9.5625C14.3854 10.4792 14.0625 11.3229 13.5625 12.0938C13.0625 12.8646 12.4375 13.5 11.6875 14Z" fill="black"/>
</svg>
