<svg width="14" height="15" viewBox="0 0 14 15" fill="none" xmlns="http://www.w3.org/2000/svg">
<path d="M3.125 14.5H0.21875V5.15625H3.125V14.5ZM1.6875 3.875C1.22917 3.875 0.833333 3.70833 0.5 3.375C0.166667 3.04167 0 2.64583 0 2.1875C0 1.72917 0.166667 1.33333 0.5 1C0.833333 0.666667 1.22917 0.5 1.6875 0.5C2.14583 0.5 2.54167 0.666667 2.875 1C3.20833 1.33333 3.375 1.72917 3.375 2.1875C3.375 2.64583 3.20833 3.04167 2.875 3.375C2.54167 3.70833 2.14583 3.875 1.6875 3.875ZM14 14.5H11.0938V9.9375C11.0938 9.1875 11.0312 8.64583 10.9062 8.3125C10.6771 7.75 10.2292 7.46875 9.5625 7.46875C8.89583 7.46875 8.42708 7.71875 8.15625 8.21875C7.94792 8.59375 7.84375 9.14583 7.84375 9.875V14.5H4.96875V5.15625H7.75V6.4375H7.78125C7.98958 6.02083 8.32292 5.67708 8.78125 5.40625C9.28125 5.07292 9.86458 4.90625 10.5312 4.90625C11.8854 4.90625 12.8333 5.33333 13.375 6.1875C13.7917 6.875 14 7.9375 14 9.375V14.5Z" fill="black"/>
</svg>
