<svg width="27" height="14" viewBox="0 0 27 14" fill="none" xmlns="http://www.w3.org/2000/svg">
<path fill-rule="evenodd" clip-rule="evenodd" d="M19.5143 1.83905L14.4143 6.93912H24.6144L19.5143 1.83905ZM20.2215 12.7463L19.5143 13.4534L18.8072 12.7463L13.7072 7.64623L13.0143 6.95338L12.3215 7.64624L7.22139 12.7463L6.51429 13.4534L5.80718 12.7463L0.707107 7.64624L0 6.93913L0.707107 6.23202L5.80718 1.13195L6.51429 0.424845L7.22139 1.13195L12.3215 6.23202L13.0143 6.92487L13.7072 6.23201L18.8072 1.13194L19.5143 0.424835L20.2215 1.13194L25.3215 6.23201L26.0286 6.93912L25.3215 7.64623L20.2215 12.7463ZM6.51429 1.83906L6.51426 1.83909V12.0392L6.51429 12.0392L11.6144 6.93913L6.51429 1.83906Z" fill="black"/>
</svg>
